<svg width="60" height="60" viewBox="0 0 60 60" fill="none" xmlns="http://www.w3.org/2000/svg">
<circle cx="30" cy="30" r="29" fill="#FEFCE8" stroke="#FACC15" stroke-width="2"/>
<path d="M31.6918 48.2098L31.6698 48.2135L31.5274 48.278L31.4873 48.2853L31.4592 48.278L31.3168 48.2135C31.2954 48.2074 31.2794 48.2104 31.2687 48.2227L31.2607 48.2411L31.2266 49.0295L31.2366 49.0664L31.2566 49.0903L31.4652 49.2266L31.4953 49.234L31.5194 49.2266L31.7279 49.0903L31.752 49.0609L31.76 49.0295L31.7259 48.243C31.7206 48.2233 31.7092 48.2123 31.6918 48.2098ZM32.2232 48.0017L32.1972 48.0053L31.8262 48.1766L31.8061 48.1951L31.8001 48.2153L31.8362 49.0074L31.8462 49.0295L31.8623 49.0424L32.2654 49.2138C32.2908 49.2199 32.3101 49.215 32.3235 49.199L32.3315 49.1732L32.2634 48.0422C32.2567 48.0201 32.2433 48.0066 32.2232 48.0017ZM30.7894 48.0053C30.7806 48.0004 30.77 47.9988 30.7599 48.0009C30.7498 48.0029 30.741 48.0085 30.7352 48.0164L30.7232 48.0422L30.655 49.1732C30.6564 49.1953 30.6677 49.2101 30.6891 49.2174L30.7192 49.2138L31.1223 49.0424L31.1423 49.0277L31.1504 49.0074L31.1845 48.2153L31.1784 48.1932L31.1584 48.1748L30.7894 48.0053Z" fill="#FACC15"/>
<path d="M38.5243 11C40.0588 10.9999 41.5354 11.5385 42.6519 12.5055C43.7684 13.4726 44.4404 14.7949 44.5304 16.2021L44.5404 16.5263V34.9474H46.0445C47.342 34.9474 48.4108 35.8537 48.5392 37.0142L48.5512 37.25V40.4737C48.5513 41.8833 47.965 43.2396 46.9123 44.2652C45.8595 45.2908 44.4199 45.9081 42.888 45.9908L42.535 46H22.4811C20.9465 46.0001 19.47 45.4615 18.3535 44.4945C17.237 43.5275 16.565 42.2051 16.4749 40.7979L16.4649 40.4737V22.0526H12.9555C12.3349 22.0529 11.7363 21.8417 11.2754 21.4599C10.8146 21.0781 10.5243 20.5528 10.4608 19.9858L10.4487 19.75V16.5263C10.4486 15.1167 11.035 13.7604 12.0877 12.7348C13.1405 11.7092 14.5801 11.0919 16.112 11.0092L16.4649 11H38.5243ZM38.5243 14.6842H20.4757V40.4737C20.4757 40.9622 20.687 41.4308 21.0631 41.7763C21.4392 42.1217 21.9492 42.3158 22.4811 42.3158C23.013 42.3158 23.523 42.1217 23.8991 41.7763C24.2752 41.4308 24.4865 40.9622 24.4865 40.4737V37.25C24.4865 35.9789 25.6095 34.9474 26.9932 34.9474H40.5296V16.5263C40.5296 16.0378 40.3184 15.5692 39.9423 15.2238C39.5662 14.8783 39.0561 14.6842 38.5243 14.6842ZM44.5404 38.6316H28.4973V40.4737C28.4973 41.1184 28.377 41.7392 28.1564 42.3158H42.535C43.0669 42.3158 43.577 42.1217 43.9531 41.7763C44.3292 41.4308 44.5404 40.9622 44.5404 40.4737V38.6316ZM30.5027 27.5789C31.0345 27.5789 31.5446 27.773 31.9207 28.1185C32.2968 28.4639 32.5081 28.9325 32.5081 29.4211C32.5081 29.9096 32.2968 30.3782 31.9207 30.7236C31.5446 31.0691 31.0345 31.2632 30.5027 31.2632H26.4919C25.96 31.2632 25.4499 31.0691 25.0739 30.7236C24.6978 30.3782 24.4865 29.9096 24.4865 29.4211C24.4865 28.9325 24.6978 28.4639 25.0739 28.1185C25.4499 27.773 25.96 27.5789 26.4919 27.5789H30.5027ZM34.5135 20.2105C35.0453 20.2105 35.5554 20.4046 35.9315 20.7501C36.3076 21.0955 36.5189 21.5641 36.5189 22.0526C36.5189 22.5412 36.3076 23.0097 35.9315 23.3552C35.5554 23.7007 35.0453 23.8947 34.5135 23.8947H26.4919C25.96 23.8947 25.4499 23.7007 25.0739 23.3552C24.6978 23.0097 24.4865 22.5412 24.4865 22.0526C24.4865 21.5641 24.6978 21.0955 25.0739 20.7501C25.4499 20.4046 25.96 20.2105 26.4919 20.2105H34.5135ZM16.4649 14.6842C15.9737 14.6843 15.4996 14.8499 15.1326 15.1497C14.7655 15.4496 14.531 15.8627 14.4736 16.3108L14.4595 16.5263V18.3684H16.4649V14.6842Z" fill="#FACC15"/>
</svg>
