<svg width="39" height="39" viewBox="0 0 39 39" fill="none" xmlns="http://www.w3.org/2000/svg">
<path d="M21.2431 37.2098L21.2211 37.2135L21.0787 37.278L21.0386 37.2853L21.0105 37.278L20.8681 37.2135C20.8467 37.2074 20.8307 37.2104 20.82 37.2227L20.812 37.2411L20.7779 38.0295L20.7879 38.0664L20.8079 38.0903L21.0165 38.2266L21.0466 38.234L21.0707 38.2266L21.2792 38.0903L21.3033 38.0609L21.3113 38.0295L21.2772 37.243C21.2719 37.2233 21.2605 37.2123 21.2431 37.2098ZM21.7745 37.0017L21.7485 37.0053L21.3775 37.1766L21.3574 37.1951L21.3514 37.2153L21.3875 38.0074L21.3975 38.0295L21.4136 38.0424L21.8167 38.2138C21.8421 38.2199 21.8614 38.215 21.8748 38.199L21.8828 38.1732L21.8147 37.0422C21.808 37.0201 21.7946 37.0066 21.7745 37.0017ZM20.3407 37.0053C20.3319 37.0004 20.3213 36.9988 20.3112 37.0009C20.3011 37.0029 20.2923 37.0085 20.2865 37.0164L20.2745 37.0422L20.2063 38.1732C20.2077 38.1953 20.219 38.2101 20.2404 38.2174L20.2705 38.2138L20.6736 38.0424L20.6936 38.0277L20.7017 38.0074L20.7358 37.2153L20.7297 37.1932L20.7097 37.1748L20.3407 37.0053Z" fill="#FACC15"/>
<path d="M28.0755 8.58503e-09C29.6101 -7.85137e-05 31.0867 0.538494 32.2031 1.50552C33.3196 2.47255 33.9917 3.79493 34.0817 5.20211L34.0917 5.52632V23.9474H35.5958C36.8932 23.9474 37.9621 24.8537 38.0905 26.0142L38.1025 26.25V29.4737C38.1026 30.8833 37.5163 32.2396 36.4635 33.2652C35.4108 34.2908 33.9712 34.9081 32.4393 34.9908L32.0863 35H12.0324C10.4978 35.0001 9.02124 34.4615 7.90474 33.4945C6.78825 32.5274 6.11624 31.2051 6.02621 29.7979L6.01618 29.4737V11.0526H2.50674C1.88616 11.0529 1.28753 10.8417 0.826692 10.4599C0.365857 10.0781 0.0755803 9.55285 0.0120325 8.98579L9.34603e-09 8.75V5.52632C-8.54734e-05 4.11672 0.586227 2.76037 1.63898 1.73478C2.69172 0.709198 4.13133 0.0919072 5.66323 0.00921075L6.01618 8.58503e-09H28.0755ZM28.0755 3.68421H10.027V29.4737C10.027 29.9622 10.2383 30.4308 10.6143 30.7763C10.9904 31.1217 11.5005 31.3158 12.0324 31.3158C12.5642 31.3158 13.0743 31.1217 13.4504 30.7763C13.8265 30.4308 14.0378 29.9622 14.0378 29.4737V26.25C14.0378 24.9789 15.1608 23.9474 16.5445 23.9474H30.0809V5.52632C30.0809 5.03776 29.8696 4.56921 29.4936 4.22375C29.1175 3.87829 28.6074 3.68421 28.0755 3.68421ZM34.0917 27.6316H18.0486V29.4737C18.0486 30.1184 17.9282 30.7392 17.7076 31.3158H32.0863C32.6182 31.3158 33.1283 31.1217 33.5043 30.7763C33.8804 30.4308 34.0917 29.9622 34.0917 29.4737V27.6316ZM20.0539 16.5789C20.5858 16.5789 21.0959 16.773 21.472 17.1185C21.8481 17.4639 22.0593 17.9325 22.0593 18.4211C22.0593 18.9096 21.8481 19.3782 21.472 19.7236C21.0959 20.0691 20.5858 20.2632 20.0539 20.2632H16.0432C15.5113 20.2632 15.0012 20.0691 14.6251 19.7236C14.249 19.3782 14.0378 18.9096 14.0378 18.4211C14.0378 17.9325 14.249 17.4639 14.6251 17.1185C15.0012 16.773 15.5113 16.5789 16.0432 16.5789H20.0539ZM24.0647 9.21053C24.5966 9.21053 25.1067 9.40461 25.4828 9.75007C25.8588 10.0955 26.0701 10.5641 26.0701 11.0526C26.0701 11.5412 25.8588 12.0097 25.4828 12.3552C25.1067 12.7007 24.5966 12.8947 24.0647 12.8947H16.0432C15.5113 12.8947 15.0012 12.7007 14.6251 12.3552C14.249 12.0097 14.0378 11.5412 14.0378 11.0526C14.0378 10.5641 14.249 10.0955 14.6251 9.75007C15.0012 9.40461 15.5113 9.21053 16.0432 9.21053H24.0647ZM6.01618 3.68421C5.525 3.68427 5.05091 3.84992 4.68386 4.14974C4.3168 4.44956 4.0823 4.8627 4.02483 5.31079L4.01079 5.52632V7.36842H6.01618V3.68421Z" fill="#FACC15"/>
</svg>
