<svg width="60" height="60" viewBox="0 0 60 60" fill="none" xmlns="http://www.w3.org/2000/svg">
<rect x="1" y="1" width="58" height="58" rx="29" fill="#FEFCE8"/>
<rect x="1" y="1" width="58" height="58" rx="29" stroke="#FACC15" stroke-width="2"/>
<path d="M39.75 13.75L46.25 20.25M13.75 46.25L15.8242 38.6448C15.9595 38.1486 16.0271 37.9005 16.131 37.6692C16.2232 37.4637 16.3365 37.2685 16.4691 37.0865C16.6185 36.8815 16.8003 36.6997 17.164 36.336L33.9558 19.5442C34.2775 19.2225 34.4384 19.0616 34.6239 19.0013C34.7871 18.9483 34.9629 18.9483 35.1261 19.0013C35.3116 19.0616 35.4725 19.2225 35.7942 19.5442L40.4558 24.2058C40.7775 24.5275 40.9384 24.6884 40.9987 24.8739C41.0517 25.0371 41.0517 25.2129 40.9987 25.3761C40.9384 25.5616 40.7775 25.7225 40.4558 26.0442L23.664 42.836C23.3003 43.1997 23.1185 43.3815 22.9135 43.5309C22.7315 43.6635 22.5362 43.7768 22.3308 43.869C22.0995 43.9729 21.8514 44.0405 21.3552 44.1758L13.75 46.25Z" stroke="#FACC15" stroke-width="3" stroke-linecap="round" stroke-linejoin="round"/>
</svg>
