<svg width="36" height="36" viewBox="0 0 36 36" fill="none" xmlns="http://www.w3.org/2000/svg">
<path d="M28 2L34.5 8.5M2 34.5L4.07415 26.8948C4.20947 26.3986 4.27713 26.1505 4.381 25.9192C4.47323 25.7137 4.58655 25.5185 4.71914 25.3365C4.86847 25.1315 5.0503 24.9497 5.41397 24.586L22.2058 7.79424C22.5275 7.47248 22.6884 7.31159 22.8739 7.25132C23.0371 7.19829 23.2129 7.19829 23.3761 7.25132C23.5616 7.31159 23.7225 7.47247 24.0442 7.79424L28.7058 12.4558C29.0275 12.7775 29.1884 12.9384 29.2487 13.1239C29.3017 13.2871 29.3017 13.4629 29.2487 13.6261C29.1884 13.8116 29.0275 13.9725 28.7058 14.2942L11.914 31.086C11.5503 31.4497 11.3685 31.6315 11.1635 31.7809C10.9815 31.9135 10.7862 32.0268 10.5808 32.119C10.3495 32.2229 10.1014 32.2905 9.60523 32.4258L2 34.5Z" stroke="#FACC15" stroke-width="3" stroke-linecap="round" stroke-linejoin="round"/>
</svg>
