<svg width="56" height="56" viewBox="0 0 56 56" fill="none" xmlns="http://www.w3.org/2000/svg">
<path d="M35.5 20.5H35.525M20.5 20.5H20.525M53 28C53 41.8071 41.8071 53 28 53C14.1929 53 3 41.8071 3 28C3 14.1929 14.1929 3 28 3C41.8071 3 53 14.1929 53 28ZM36.75 20.5C36.75 21.1904 36.1904 21.75 35.5 21.75C34.8096 21.75 34.25 21.1904 34.25 20.5C34.25 19.8096 34.8096 19.25 35.5 19.25C36.1904 19.25 36.75 19.8096 36.75 20.5ZM21.75 20.5C21.75 21.1904 21.1904 21.75 20.5 21.75C19.8096 21.75 19.25 21.1904 19.25 20.5C19.25 19.8096 19.8096 19.25 20.5 19.25C21.1904 19.25 21.75 19.8096 21.75 20.5ZM28 41.75C34.2513 41.75 39.25 37.1675 39.25 33H16.75C16.75 37.1675 21.7487 41.75 28 41.75Z" stroke="#D1D5DB" stroke-width="5" stroke-linecap="round" stroke-linejoin="round"/>
</svg>
